<svg width="260" height="554" viewBox="0 0 260 554" fill="none" xmlns="http://www.w3.org/2000/svg">
<path d="M175.178 338.139C175.178 335.914 176.982 334.11 179.207 334.11C181.431 334.11 183.235 335.914 183.235 338.139C183.235 340.363 181.431 342.167 179.207 342.167C177.007 342.167 175.178 340.363 175.178 338.139Z" fill="url(#paint0_linear_3_366)"/>
<path d="M179.899 246.82H178.564V335.791H179.899V246.82Z" fill="url(#paint1_linear_3_366)"/>
<path d="M-7.55829 228.581C-7.55829 226.357 -5.75415 224.552 -3.52988 224.552C-1.3056 224.552 0.498522 226.357 0.498522 228.581C0.498522 230.805 -1.3056 232.609 -3.52988 232.609C-5.75415 232.609 -7.55829 230.805 -7.55829 228.581Z" fill="url(#paint2_linear_3_366)"/>
<path d="M42.5126 133.901C42.5126 131.677 44.3167 129.873 46.541 129.873C48.7653 129.873 50.5694 131.677 50.5694 133.901C50.5694 136.125 48.7653 137.929 46.541 137.929C44.3167 137.929 42.5126 136.125 42.5126 133.901Z" fill="url(#paint3_linear_3_366)"/>
<path d="M47.2329 42.5822H45.8984V131.553H47.2329V42.5822Z" fill="url(#paint4_linear_3_366)"/>
<path d="M82.7472 154.34C82.7472 152.115 84.5513 150.311 86.7756 150.311C88.9999 150.311 90.804 152.115 90.804 154.34C90.804 156.564 88.9999 158.368 86.7756 158.368C84.5761 158.393 82.7472 156.589 82.7472 154.34Z" fill="url(#paint5_linear_3_366)"/>
<path d="M87.4676 63.0455H86.133V152.041H87.4676V63.0455Z" fill="url(#paint6_linear_3_366)"/>
<path d="M148.388 384.082C148.388 381.858 150.192 380.054 152.416 380.054C154.641 380.054 156.445 381.858 156.445 384.082C156.445 386.307 154.641 388.111 152.416 388.111C150.192 388.111 148.388 386.307 148.388 384.082Z" fill="url(#paint7_linear_3_366)"/>
<path d="M153.108 292.764H151.774V381.735H153.108V292.764Z" fill="url(#paint8_linear_3_366)"/>
<path d="M210.742 124.954C210.742 122.73 212.546 120.926 214.77 120.926C216.994 120.926 218.799 122.73 218.799 124.954C218.799 127.179 216.994 128.983 214.77 128.983C212.546 128.983 210.742 127.179 210.742 124.954Z" fill="url(#paint9_linear_3_366)"/>
<path d="M215.438 33.6603H214.103V122.631H215.438V33.6603Z" fill="url(#paint10_linear_3_366)"/>
<path d="M99.5529 121C99.5529 118.776 101.357 116.972 103.581 116.972C105.806 116.972 107.61 118.776 107.61 121C107.61 123.224 105.806 125.029 103.581 125.029C101.357 125.029 99.5529 123.224 99.5529 121Z" fill="url(#paint11_linear_3_366)"/>
<path d="M104.273 74.1916H102.939V118.677H104.273V74.1916Z" fill="url(#paint12_linear_3_366)"/>
<path d="M251.495 344.663C251.495 342.439 253.3 340.635 255.524 340.635C257.748 340.635 259.552 342.439 259.552 344.663C259.552 346.888 257.748 348.692 255.524 348.692C253.324 348.692 251.495 346.888 251.495 344.663Z" fill="url(#paint13_linear_3_366)"/>
<path d="M256.216 297.83H254.881V342.315H256.216V297.83Z" fill="url(#paint14_linear_3_366)"/>
<path d="M19.7261 108.94C19.7261 106.715 21.5302 104.911 23.7545 104.911C25.9787 104.911 27.7829 106.715 27.7829 108.94C27.7829 111.164 25.9787 112.968 23.7545 112.968C21.5302 112.968 19.7261 111.164 19.7261 108.94Z" fill="url(#paint15_linear_3_366)"/>
<path d="M24.4465 62.1064H23.1119V106.592H24.4465V62.1064Z" fill="url(#paint16_linear_3_366)"/>
<path d="M149.97 47.3026C149.97 45.0783 151.774 43.2742 153.998 43.2742C156.222 43.2742 158.027 45.0783 158.027 47.3026C158.027 49.5269 156.222 51.331 153.998 51.331C151.799 51.3557 149.97 49.5269 149.97 47.3026Z" fill="url(#paint17_linear_3_366)"/>
<path d="M154.69 0.493988H153.356V44.9795H154.69V0.493988Z" fill="url(#paint18_linear_3_366)"/>
<path d="M93.918 372.862C93.918 370.638 95.7222 368.834 97.9464 368.834C100.171 368.834 101.975 370.638 101.975 372.862C101.975 375.086 100.171 376.89 97.9464 376.89C95.7222 376.89 93.918 375.086 93.918 372.862Z" fill="url(#paint19_linear_3_366)"/>
<path d="M98.6137 281.543H97.2791V370.539H98.6137V281.543Z" fill="url(#paint20_linear_3_366)"/>
<path d="M209.852 325.633C209.852 323.409 211.656 321.605 213.88 321.605C216.105 321.605 217.909 323.409 217.909 325.633C217.909 327.858 216.105 329.662 213.88 329.662C211.656 329.686 209.852 327.882 209.852 325.633Z" fill="url(#paint21_linear_3_366)"/>
<path d="M214.548 234.339H213.213V323.335H214.548V234.339Z" fill="url(#paint22_linear_3_366)"/>
<path d="M15.6977 549.815C15.6977 547.591 17.5018 545.787 19.7261 545.787C21.9504 545.787 23.7545 547.591 23.7545 549.815C23.7545 552.04 21.9504 553.844 19.7261 553.844C17.5018 553.869 15.6977 552.04 15.6977 549.815Z" fill="url(#paint23_linear_3_366)"/>
<path d="M20.3934 240.468H19.0588V547.492H20.3934V240.468Z" fill="url(#paint24_linear_3_366)"/>
<path d="M186.522 374.024C186.522 371.8 188.326 369.995 190.55 369.995C192.775 369.995 194.579 371.8 194.579 374.024C194.579 376.248 192.775 378.052 190.55 378.052C188.326 378.052 186.522 376.248 186.522 374.024Z" fill="url(#paint25_linear_3_366)"/>
<path d="M191.218 64.6766H189.883V371.701H191.218V64.6766Z" fill="url(#paint26_linear_3_366)"/>
<path d="M78.0021 464.008C78.0021 461.784 79.8062 459.98 82.0305 459.98C84.2547 459.98 86.0589 461.784 86.0589 464.008C86.0589 466.232 84.2547 468.036 82.0305 468.036C79.8062 468.061 78.0021 466.232 78.0021 464.008Z" fill="url(#paint27_linear_3_366)"/>
<path d="M82.7225 154.686H81.3879V461.71H82.7225V154.686Z" fill="url(#paint28_linear_3_366)"/>
<path d="M163.291 225.862C163.291 223.638 165.095 221.834 167.319 221.834C169.543 221.834 171.347 223.638 171.347 225.862C171.347 228.087 169.543 229.891 167.319 229.891C165.095 229.916 163.291 228.111 163.291 225.862Z" fill="url(#paint29_linear_3_366)"/>
<path d="M168.011 53.6788H166.676V223.539H168.011V53.6788Z" fill="url(#paint30_linear_3_366)"/>
<defs>
<linearGradient id="paint0_linear_3_366" x1="179.224" y1="315.457" x2="179.224" y2="245.437" gradientUnits="userSpaceOnUse">
<stop stop-color="#A4FFFF"/>
<stop offset="1" stop-color="#A4FFFF" stop-opacity="0"/>
</linearGradient>
<linearGradient id="paint1_linear_3_366" x1="179.227" y1="315.456" x2="179.227" y2="245.438" gradientUnits="userSpaceOnUse">
<stop stop-color="#A4FFFF"/>
<stop offset="1" stop-color="#A4FFFF" stop-opacity="0"/>
</linearGradient>
<linearGradient id="paint2_linear_3_366" x1="-3.53013" y1="205.897" x2="-3.53013" y2="135.856" gradientUnits="userSpaceOnUse">
<stop stop-color="#A4FFFF"/>
<stop offset="1" stop-color="#A4FFFF" stop-opacity="0"/>
</linearGradient>
<linearGradient id="paint3_linear_3_366" x1="46.557" y1="111.226" x2="46.557" y2="41.2065" gradientUnits="userSpaceOnUse">
<stop stop-color="#A4FFFF"/>
<stop offset="1" stop-color="#A4FFFF" stop-opacity="0"/>
</linearGradient>
<linearGradient id="paint4_linear_3_366" x1="46.5568" y1="111.225" x2="46.5568" y2="41.2073" gradientUnits="userSpaceOnUse">
<stop stop-color="#A4FFFF"/>
<stop offset="1" stop-color="#A4FFFF" stop-opacity="0"/>
</linearGradient>
<linearGradient id="paint5_linear_3_366" x1="86.7946" y1="131.676" x2="86.7946" y2="61.6535" gradientUnits="userSpaceOnUse">
<stop stop-color="#A4FFFF"/>
<stop offset="1" stop-color="#A4FFFF" stop-opacity="0"/>
</linearGradient>
<linearGradient id="paint6_linear_3_366" x1="86.7946" y1="131.676" x2="86.7946" y2="61.6568" gradientUnits="userSpaceOnUse">
<stop stop-color="#A4FFFF"/>
<stop offset="1" stop-color="#A4FFFF" stop-opacity="0"/>
</linearGradient>
<linearGradient id="paint7_linear_3_366" x1="152.431" y1="361.411" x2="152.431" y2="291.41" gradientUnits="userSpaceOnUse">
<stop stop-color="#A4FFFF"/>
<stop offset="1" stop-color="#A4FFFF" stop-opacity="0"/>
</linearGradient>
<linearGradient id="paint8_linear_3_366" x1="152.432" y1="361.404" x2="152.432" y2="291.386" gradientUnits="userSpaceOnUse">
<stop stop-color="#A4FFFF"/>
<stop offset="1" stop-color="#A4FFFF" stop-opacity="0"/>
</linearGradient>
<linearGradient id="paint9_linear_3_366" x1="214.771" y1="102.282" x2="214.771" y2="32.2625" gradientUnits="userSpaceOnUse">
<stop stop-color="#A4FFFF"/>
<stop offset="1" stop-color="#A4FFFF" stop-opacity="0"/>
</linearGradient>
<linearGradient id="paint10_linear_3_366" x1="214.77" y1="102.281" x2="214.77" y2="32.263" gradientUnits="userSpaceOnUse">
<stop stop-color="#A4FFFF"/>
<stop offset="1" stop-color="#A4FFFF" stop-opacity="0"/>
</linearGradient>
<linearGradient id="paint11_linear_3_366" x1="103.593" y1="98.3314" x2="103.593" y2="28.3118" gradientUnits="userSpaceOnUse">
<stop stop-color="#A4FFFF"/>
<stop offset="1" stop-color="#A4FFFF" stop-opacity="0"/>
</linearGradient>
<linearGradient id="paint12_linear_3_366" x1="103.594" y1="108.507" x2="103.594" y2="73.4979" gradientUnits="userSpaceOnUse">
<stop stop-color="#A4FFFF"/>
<stop offset="1" stop-color="#A4FFFF" stop-opacity="0"/>
</linearGradient>
<linearGradient id="paint13_linear_3_366" x1="255.542" y1="321.981" x2="255.542" y2="251.961" gradientUnits="userSpaceOnUse">
<stop stop-color="#A4FFFF"/>
<stop offset="1" stop-color="#A4FFFF" stop-opacity="0"/>
</linearGradient>
<linearGradient id="paint14_linear_3_366" x1="255.542" y1="332.157" x2="255.542" y2="297.148" gradientUnits="userSpaceOnUse">
<stop stop-color="#A4FFFF"/>
<stop offset="1" stop-color="#A4FFFF" stop-opacity="0"/>
</linearGradient>
<linearGradient id="paint15_linear_3_366" x1="23.771" y1="86.2509" x2="23.771" y2="16.2097" gradientUnits="userSpaceOnUse">
<stop stop-color="#A4FFFF"/>
<stop offset="1" stop-color="#A4FFFF" stop-opacity="0"/>
</linearGradient>
<linearGradient id="paint16_linear_3_366" x1="23.7711" y1="96.4351" x2="23.7711" y2="61.4255" gradientUnits="userSpaceOnUse">
<stop stop-color="#A4FFFF"/>
<stop offset="1" stop-color="#A4FFFF" stop-opacity="0"/>
</linearGradient>
<linearGradient id="paint17_linear_3_366" x1="154.018" y1="24.6352" x2="154.018" y2="-45.3847" gradientUnits="userSpaceOnUse">
<stop stop-color="#A4FFFF"/>
<stop offset="1" stop-color="#A4FFFF" stop-opacity="0"/>
</linearGradient>
<linearGradient id="paint18_linear_3_366" x1="154.02" y1="34.8103" x2="154.02" y2="-0.195785" gradientUnits="userSpaceOnUse">
<stop stop-color="#A4FFFF"/>
<stop offset="1" stop-color="#A4FFFF" stop-opacity="0"/>
</linearGradient>
<linearGradient id="paint19_linear_3_366" x1="97.9571" y1="350.188" x2="97.9571" y2="280.168" gradientUnits="userSpaceOnUse">
<stop stop-color="#A4FFFF"/>
<stop offset="1" stop-color="#A4FFFF" stop-opacity="0"/>
</linearGradient>
<linearGradient id="paint20_linear_3_366" x1="97.9558" y1="350.188" x2="97.9558" y2="280.168" gradientUnits="userSpaceOnUse">
<stop stop-color="#A4FFFF"/>
<stop offset="1" stop-color="#A4FFFF" stop-opacity="0"/>
</linearGradient>
<linearGradient id="paint21_linear_3_366" x1="213.887" y1="302.964" x2="213.887" y2="232.923" gradientUnits="userSpaceOnUse">
<stop stop-color="#A4FFFF"/>
<stop offset="1" stop-color="#A4FFFF" stop-opacity="0"/>
</linearGradient>
<linearGradient id="paint22_linear_3_366" x1="213.888" y1="302.97" x2="213.888" y2="232.952" gradientUnits="userSpaceOnUse">
<stop stop-color="#A4FFFF"/>
<stop offset="1" stop-color="#A4FFFF" stop-opacity="0"/>
</linearGradient>
<linearGradient id="paint23_linear_3_366" x1="19.7345" y1="510.33" x2="19.7345" y2="385.631" gradientUnits="userSpaceOnUse">
<stop stop-color="#A4FFFF"/>
<stop offset="1" stop-color="#A4FFFF" stop-opacity="0"/>
</linearGradient>
<linearGradient id="paint24_linear_3_366" x1="19.7358" y1="479.128" x2="19.7358" y2="249.739" gradientUnits="userSpaceOnUse">
<stop stop-color="#A4FFFF"/>
<stop offset="1" stop-color="#A4FFFF" stop-opacity="0"/>
</linearGradient>
<linearGradient id="paint25_linear_3_366" x1="190.548" y1="334.534" x2="190.548" y2="209.835" gradientUnits="userSpaceOnUse">
<stop stop-color="#A4FFFF"/>
<stop offset="1" stop-color="#A4FFFF" stop-opacity="0"/>
</linearGradient>
<linearGradient id="paint26_linear_3_366" x1="190.55" y1="303.331" x2="190.55" y2="73.9432" gradientUnits="userSpaceOnUse">
<stop stop-color="#A4FFFF"/>
<stop offset="1" stop-color="#A4FFFF" stop-opacity="0"/>
</linearGradient>
<linearGradient id="paint27_linear_3_366" x1="82.0448" y1="424.523" x2="82.0448" y2="299.825" gradientUnits="userSpaceOnUse">
<stop stop-color="#A4FFFF"/>
<stop offset="1" stop-color="#A4FFFF" stop-opacity="0"/>
</linearGradient>
<linearGradient id="paint28_linear_3_366" x1="82.0461" y1="393.319" x2="82.0461" y2="163.932" gradientUnits="userSpaceOnUse">
<stop stop-color="#A4FFFF"/>
<stop offset="1" stop-color="#A4FFFF" stop-opacity="0"/>
</linearGradient>
<linearGradient id="paint29_linear_3_366" x1="167.33" y1="186.369" x2="167.33" y2="61.632" gradientUnits="userSpaceOnUse">
<stop stop-color="#A4FFFF"/>
<stop offset="1" stop-color="#A4FFFF" stop-opacity="0"/>
</linearGradient>
<linearGradient id="paint30_linear_3_366" x1="167.33" y1="185.724" x2="167.33" y2="58.8085" gradientUnits="userSpaceOnUse">
<stop stop-color="#A4FFFF"/>
<stop offset="1" stop-color="#A4FFFF" stop-opacity="0"/>
</linearGradient>
</defs>
</svg>
